The Raid Redemption 2011 ENGSUBBED HDRip XViD-OCW


IMDB: WWW.imdb.com/title/tt1899353/


Release Name: The.Raid.Redemption.2011.ENGSUBBED.HDRip.XViD-OCW
Size: 700 MB
Video: XViD | 640×272 | 847 Kbps | 25.000 fps
Audio: Indonesian | MP3 | 128 kbps
Runtime: 1h 40mn
Subtitle: English Hardcoded
Genre: Action | Crime | Thriller
IMDB rating: 8.3/10 from 10,688 users
Directed by: Gareth Evans
Starring: Iko Uwais, Ananda George and Ray Sahetapy


Video:

ID                                       : 0
Format                                   : MPEG-4 Visual
Format profile                           : Advanced Simple@L5
Format settings, BVOP                    : 1
Format settings, QPel                    : No
Format settings, GMC                     : No warppoints
Format settings, Matrix                  : Custom
Codec ID                                 : XVID
Codec ID/Hint                            : XviD
Duration                                 : 1h 40mn
Bit rate                                 : 847 Kbps
Width                                    : 640 pixels
Height                                   : 272 pixels
Display aspect ratio                     : 2.35:1
Frame rate                               : 25.000 fps
Color space                              : YUV
Chroma subsampling                       : 4:2:0
Bit depth                                : 8 bits
Scan type                                : Progressive
Compression mode                         : Lossy
Bits/(Pixel*Frame)                       : 0.195
Stream size                              : 610 MiB (87%)
Writing library                          : XviD 1.2.1 (UTC 2008-12-04)


Audio:

ID                                       : 1
Format                                   : MPEG Audio
Format version                           : Version 1
Format profile                           : Layer 3
Mode                                     : Joint stereo
Mode extension                           : MS Stereo
Codec ID                                 : 55
Codec ID/Hint                            : MP3
Duration                                 : 1h 40mn
Bit rate mode                            : Variable
Bit rate                                 : 112 Kbps
Nominal bit rate                         : 128 Kbps
Channel(s)                               : 2 channels
Sampling rate                            : 48.0 KHz
Compression mode                         : Lossy
Stream size                              : 80.8 MiB (12%)
Alignment                                : Aligned on interleaves
Interleave, duration                     : 24 ms (0.60 video frame)
Interleave, preload duration             : 164 ms
Writing library                          : LAME3.98r
Encoding settings                        : -m j -V 4 -q 2 -lowpass 17 --abr 128
Language                                 : English


Poster:

 
http://i.imgur.com/gUqBG.jpg


Screenshots:

 
http://i.imgur.com/nCmLi.png

 
http://i.imgur.com/ZrrPt.png

 
http://i.imgur.com/FWmS7.png


ENJOY!